<svg id="Layer_1" data-name="Layer 1" xmlns="http://www.w3.org/2000/svg" viewBox="0 0 748.26 962.87"><defs><style>.cls-1{fill:#221f1f;}.cls-2{fill:#fff;}.cls-3{fill:#231f20;}</style></defs><title>wandal</title><path d="M402.59,119.7C340.18,130.39,288,200,267.28,224.75c-77.63,93-65.69,258-65.69,258,1.32,35.45,7.12,186.43,69.75,325,55.59,86.75,48.34,79.12,81.52,110.69C426,988,478.9,991,529.82,980.14s136.7-84.95,162.11-139.5c0,0,82.35-145.54,88.57-343.92,2.89-92.57-1.19-140.21-6.53-168h0c-4.3-33.61-34.25-101.94-53.49-137.63C702.35,157.44,636.18,87.8,509,98.52,509,98.52,425,114.57,402.59,119.7Z" transform="translate(-104 -22)"/><path class="cls-1" d="M819.58,538.39c-4.18,141-44.71,288.43-138.3,397.62-2.23,2.6-.26,12.62,2.07,9.41C727.18,885,764.06,822.67,788.47,751.78c23.47-68.16,36.92-142.17,34.52-214.41-.16-5-3.3-2.8-3.41,1Z" transform="translate(-104 -22)"/><path class="cls-1" d="M819.05,541.4A80.24,80.24,0,0,1,845,547.65l-1.46-5.42C836.18,694.3,782.22,838.4,688.2,958.1c-1.84,2.35-.66,12.58,2,9.24,96.58-119,153.21-271.78,157.82-424.93,0-1.14,0-4.83-1.46-5.42a83.1,83.1,0,0,0-27.17-5.78c-2.88-.13-3.37,9.95-.39,10.19Z" transform="translate(-104 -22)"/><path class="cls-1" d="M674.59,948a29.72,29.72,0,0,0,5.2,10.56c1.87,2.35,5.63,6.7,8.91,5.46,1.3-.5,1.7-3,1.8-4.09a7.88,7.88,0,0,0-.9-5c-1.59-2.46-4.87-3.57-7.05-5.53a16.85,16.85,0,0,1-4.51-6.73c-.55-1.47-1.78-1.74-2.69-.46a7.7,7.7,0,0,0-.76,5.81Z" transform="translate(-104 -22)"/><path class="cls-1" d="M683,924.43c3.55,5.45,8.4,9.94,13.38,14.09,4.32,3.59,9.93,9.11,15.71,9.66,3.62.34,3.1-7.36,1.68-9-3.88-4.54-9.89-7.22-14.59-10.89-4.87-3.8-9.12-8.32-14-12.06-3.15-2.42-3.12,6.77-2.17,8.22Z" transform="translate(-104 -22)"/><path class="cls-1" d="M704.8,898.18c8.78,7.63,19.39,15.22,29.85,20.35,4,2,4.89-7.75,2.63-9.64a141.84,141.84,0,0,0-30.15-19.48c-3.6-1.68-4.28,7.07-2.33,8.77Z" transform="translate(-104 -22)"/><path class="cls-1" d="M733,858.31c8.05,5.66,16.56,11.64,25.53,15.74,4.43,2,4.58-8.14,2-10.2-7.77-6.11-16.81-11.1-25.52-15.74-4-2.16-4.89,8.14-2,10.2Z" transform="translate(-104 -22)"/><path class="cls-1" d="M751.38,813c9.48,5.75,19.3,11.58,29.46,16.07,4.42,2,5.26-8.64,2-10.64-9.38-5.83-19.62-10.7-29.66-15.3-3.9-1.78-4.79,8.08-1.84,9.87Z" transform="translate(-104 -22)"/><path class="cls-1" d="M777.05,762.44a227.75,227.75,0,0,0,28.28,12.43c4.57,1.57,5.38-8.39,2-10.25a234.56,234.56,0,0,0-28.25-12.81c-4.49-1.76-5.6,8.86-2.07,10.63Z" transform="translate(-104 -22)"/><path class="cls-1" d="M792.29,707.09c9.53,2.74,19.28,5.35,29.15,6.4,4,.42,4.62-9.48,1.25-10.62-9.42-3.21-19.31-5.1-29.13-6.64-4-.62-4.75,9.87-1.27,10.86Z" transform="translate(-104 -22)"/><path class="cls-1" d="M806.48,641.38c12.08,7.38,25.56,14.51,39.53,17.43,3.56.74,4-8.54,1.13-9.78-13-5.65-26.2-10.15-38.83-16.84-3.67-1.94-4.82,7.36-1.83,9.19Z" transform="translate(-104 -22)"/><path class="cls-1" d="M812.63,580.93c12.35,1.2,24,1,36.19,3.83,3.87.89,4.72-10,1.29-11.21-11.68-4.17-25.91-6.15-37.81-1.81-2.82,1-3.08,8.86.33,9.19Z" transform="translate(-104 -22)"/><path class="cls-1" d="M105.19,279c18.59,12.74,38.77,22.59,59.9,30.37,4.26,1.56,6.58-7.38,4.73-10a144,144,0,0,1-17.48-31.54l-5.12,8.81c10.89,1.88,21.8,3.76,32.65,5.86,5.51,1.06,8.14-9.34,4.72-12.55-15-14-30-28.68-46.54-40.83-4.29-3.15-7.24,7-4.64,9.86,13.89,15.47,29.92,29.2,45.46,43l4.72-12.54c-11.08-1.16-22.15-2.54-33.2-3.91-3.9-.48-6.35,5.66-5.13,8.81a141.88,141.88,0,0,0,18.3,33.74l4.72-10c-20.76-7.21-40.09-16.62-59.08-27.66-3.79-2.2-7,6.45-4,8.52Z" transform="translate(-104 -22)"/><path class="cls-1" d="M160.19,230.8c6,6.4,12.24,12.55,18.41,18.77,3.79,3.82,8.68,11.78,14.61,11.25,1.86-.16,3.42-2.84,3.76-4.45l.19-.88c.33-1.61.77-4.43-.84-5.62l-.73-.54a2.37,2.37,0,0,0-3.2.45l-.52.6c-1.24,1.41-3.81,7.7-.3,8.29l-.3,0,.25-6.23-.33.81,4.14-3c-4.86-.61-11.82-10.27-15.38-13.74-5.11-5-10.19-10-15.45-14.84-3.39-3.11-6.9,6.43-4.31,9.2Z" transform="translate(-104 -22)"/><path class="cls-1" d="M160.53,224.08c7.57,3,15.82,3.86,23.49,6.67s14.4,7.73,22.09,10.35c4.38,1.49,6-7.7,3.76-10.07-10.4-11-33-17.81-47.78-14.7-2.62.56-4.55,6.59-1.56,7.75Z" transform="translate(-104 -22)"/><path class="cls-1" d="M181.33,245.63c3.3-7.9,7.49-15.29,11-23.09,1-2.27,1.89-4.6,2.83-6.9a19.94,19.94,0,0,0,1.47-3.56l.54-1.24q1.81-2.93-2.8.39c1.73,1.46,3.72-1,4.35-2.37a16.22,16.22,0,0,0,1.16-3.92c.34-1.87-.13-4.32-2-5.16-4.66-2.06-8.4,10.59-9.37,13.07-3.94,10-10,19.3-12.4,29.88-1,4.42,2.88,8.6,5.26,2.9Z" transform="translate(-104 -22)"/><path class="cls-1" d="M267.37,134.46c5.43-5,11.38-9.33,16.91-14.2,1.61-1.42,3.14-2.94,4.7-4.41a17.46,17.46,0,0,0,2.43-2.27l.87-.77c1.65-1.1.88-1.33-2.33-.7.83,1.77,3.27.57,4.26-.31a13.68,13.68,0,0,0,2.32-2.66c.94-1.35,1.45-3.44.27-4.77-2.92-3.29-10.4,5.3-12.05,6.9-6.69,6.47-14.8,11.56-20.46,19-2.37,3.12-.82,7.79,3.08,4.17Z" transform="translate(-104 -22)"/><path class="cls-1" d="M193.4,187.39c2.2,5.73,7.65,9.86,11.9,14.13,4,4,8,9.42,13.21,11.81,3.69,1.7,5.3-6.94,4.14-9-2.94-5.23-8.23-9.18-12.53-13.29-3.83-3.66-8.15-9.67-13.53-10.72-3.16-.61-3.94,5.12-3.19,7.06Z" transform="translate(-104 -22)"/><path class="cls-1" d="M193.69,183.42c7.77,3.65,16.38,5.62,24.66,7.81,7.45,2,14.86,4.52,22.57,4.89,4.11.2,5.82-9.28,2.19-10.92-7.64-3.45-16.86-4.58-25.09-6.28-7.51-1.56-15-3.22-22.7-3.48-2.89-.1-4.17,6.79-1.63,8Z" transform="translate(-104 -22)"/><path class="cls-1" d="M215.45,163.28c2.58,6.08,7.69,10.92,12,15.85s8.74,11.61,14.35,15c4.11,2.5,6.31-5.93,4.88-8.58-3.23-6-8.83-11-13.46-16-4.31-4.65-8.58-10.81-14.51-13.35-3.07-1.31-3.93,5.5-3.25,7.09Z" transform="translate(-104 -22)"/><path class="cls-1" d="M227.84,148c7.5,11.46,16.9,22.22,25.86,32.57,3,3.44,7.09-6.68,4.57-9.84-8.15-10.23-16.69-21.27-26.25-30.22-2.83-2.65-5.53,5.42-4.18,7.49Z" transform="translate(-104 -22)"/><path class="cls-1" d="M228.51,143.67c7.89-4.69,18.92-4.52,26.26,1.33,9.15,7.29,7.93,16.76,3.38,26.15-1.26,2.6-.74,9.59,3.47,6.19,10.33-8.34,9.77-28.15,2.18-38-9.09-11.74-25.31-11.59-36.23-2.82-1.8,1.45-2.53,9.17.94,7.11Z" transform="translate(-104 -22)"/><path class="cls-1" d="M258.76,108c2.19,8.06,5.87,15.73,8.76,23.56,3,8.21,5,17,8.72,24.94,2.15,4.62,5.67-4.78,5.32-6.81-1.43-8.06-4.73-16.06-7.61-23.7-3-7.92-5.82-16.76-10.73-23.68-2.44-3.45-5,3.69-4.46,5.69Z" transform="translate(-104 -22)"/><path class="cls-1" d="M264.66,105.6c0,.05,16.61,15.72,18.09,17.31q4,4.36,7.85,9c1.35,1.64,7.95,7.92,7.91,9.89l4.25-8.06h-.56l1.28,6.24.16-.52c.73-2.42-.15-8.47-3.58-5l-.31.31c-1.81,1.84-3.23,6.26-1.86,8.7l.44.79a2,2,0,0,0,2.12,1.22h.72c1.9,0,3.51-3.56,3.83-5,2.71-12.16-13.18-24.27-21-31.87-5.58-5.43-18.73-20.28-23.15-6.51-.92,2.88,1.37,7.91,3.8,3.55Z" transform="translate(-104 -22)"/><path class="cls-1" d="M305.54,83.56c2.48,6.08,5.27,12,8,18,2,4.38,3.8,10.76,7.45,14.14,8.38,7.77,17.49-3.85,25.28-6,4.47-1.26,6.57-14,1.63-12.64-7.68,2.06-17.18,14.09-23.49,4.72-5.43-8.08-8.49-18.48-13.05-27.13-2.69-5.09-7.17,5.66-5.83,9Z" transform="translate(-104 -22)"/><path class="cls-1" d="M360.51,42.16a22,22,0,0,1-9.95,3.49c-4.07.47-5,8-3.92,10.89,2.85,7.57,5.79,15.1,8.9,22.57,2.35,5.64,4.3,13.64,9.58,17.37,8.72,6.14,19.37-3,25-9.16,2.82-3.09,3-15.41-2.17-10.09-7.85,8.14-17.17,12.82-22.8.14-4.44-10-8.46-20.18-12.34-30.41l-3.92,10.89a21.55,21.55,0,0,0,12.64-6.07c2.07-1.89,3.5-12.51-1.05-9.62Z" transform="translate(-104 -22)"/><path class="cls-1" d="M357.42,74.94a33.55,33.55,0,0,1,11.26-5.7c2.07-.55,4.48-.46,6.48-1.18,3.09-1.12,4.52-5.24,4.42-8.27-.22-6.54-8.33-3-12-1.41a31.53,31.53,0,0,0-11,7.92,8.6,8.6,0,0,0-2,6.44c.16,1.39,1.15,3.5,2.88,2.2Z" transform="translate(-104 -22)"/><path class="cls-1" d="M389.68,47.76c-.24,7.15,2.59,14.3,4.44,21.16s3.35,13.63,5.73,20.19c.87,2.39,3.07.65,4.07-.42a9.63,9.63,0,0,0,1.9-7.52c-1.45-7.36-3.9-14.59-5.95-21.8-1.49-5.27-2.17-12.94-6.17-16.9-2.27-2.25-4,4.1-4,5.29Z" transform="translate(-104 -22)"/><path class="cls-1" d="M396.21,42A2.42,2.42,0,0,1,394,40l-.88,6c2.94-4.68,9.12-8.75,14.36-4.55,5.56,4.45-4.88,7.66-7.8,9.49-2.15,1.35-3.15,4.6-3.29,7-.07,1.29.22,5.18,2.53,4.38,6.7-2.33,12.72-7.51,15.31-14.17,2.3-5.9,2.59-14.37-3.93-17.65-6.22-3.13-12.8.7-16.71,5.62-3.06,3.85-7.52,13.4,1,13.56,2.35,0,4.09-6.86,1.61-7.63Z" transform="translate(-104 -22)"/><path class="cls-1" d="M425.88,42.18a138.28,138.28,0,0,0,3.84,40.88c1.59,6.52,7.27-3.18,6.4-6.9a198.08,198.08,0,0,1-4.8-37.65c-.26-6.7-5.23.37-5.44,3.67Z" transform="translate(-104 -22)"/><path class="cls-1" d="M448.43,37.11c.05,7.1.61,14.19,1,21.28.35,6.34.08,13,1.5,19.21,1.26,5.5,5.83-1.24,6-3.84.88-13.57-.87-28.54-2.49-42.07-.73-6.13-6,2.78-6,5.42Z" transform="translate(-104 -22)"/><path class="cls-1" d="M429.11,62.11c6.81-.36,13.56-1,20.38-1.29,3.94-.14,6.5-12.39,2.66-12.49a57.58,57.58,0,0,0-21.58,3.36c-2.87,1.11-6.15,10.66-1.46,10.42Z" transform="translate(-104 -22)"/><path class="cls-1" d="M485.3,30.4a38.79,38.79,0,0,0-13.91,29.28c-.14,10.26,5.73,23.49,18.12,19.95,22.49-6.44,21.65-44.88-1.82-49.14-4.09-.75-7.32,10.89-3.38,11.89,5.44,1.4,10,4,12.86,8.95,3.87,6.79.91,15-6.95,16.89-6.35,1.49-11.16-3.51-12.38-9.43-1.63-7.9,2.54-14.93,8.07-20.14,1.79-1.68,2.49-10.84-.61-8.25Z" transform="translate(-104 -22)"/><path class="cls-1" d="M578.11,36.83a35.4,35.4,0,0,0-21.77,25.34c-2.25,9.55-.36,23,11.78,23.82,11.15.71,19.69-9.73,22.37-19.53,3.09-11.3-.76-23.28-11.22-29.07-3.1-1.71-7,9.56-4.07,11.47,4.31,2.79,8.17,6.45,9.26,11.75,1.57,7.73-6.33,13.69-13.41,13.49s-10.41-6.1-8.7-12.69c1.81-7,8.07-12.14,14.35-15.07,2.69-1.26,4.52-10.71,1.41-9.51Z" transform="translate(-104 -22)"/><path class="cls-1" d="M524.23,38.48c-.55,12.18-.46,24.42-.46,36.61,0,7.47,6.13-.25,6.13-4.3,0-12,.1-24.1-.5-36.11-.33-6.68-5,.59-5.17,3.8Z" transform="translate(-104 -22)"/><path class="cls-1" d="M512.75,35.11c5.75,0,11-1.54,16.92-.46s10.41,3.48,15.28,6.68c4.1,2.71,8-9.11,5-11.72-9.09-7.94-25.67-10.67-35.85-3.3-1.24.89-4.4,8.79-1.38,8.8Z" transform="translate(-104 -22)"/><path class="cls-2" d="M126.6,694.29S115.27,809.72,156,866.19,256.54,969.85,267.63,969.68s-72.34-105.95-91.54-152.26S126.6,694.29,126.6,694.29" transform="translate(-104 -22)"/><path class="cls-2" d="M705.23,191" transform="translate(-104 -22)"/><path class="cls-2" d="M763.3,128.77s23.83,42,28.09,88,5.46,120.32,5.46,120.32,4.1,18.54,12.26-18.42,17.21-91.17,7.89-120.79-31.33-64.79-53.7-69.08" transform="translate(-104 -22)"/><path class="cls-2" d="M510.15,317.4c-1.51,101.18,3.76,202.55,11.7,303.39.38,4.8,3.85,1.53,3.55-1.86-8.84-100.34-11.73-200.82-12.71-301.5,0-3.72-2.48-3.83-2.54,0Z" transform="translate(-104 -22)"/><path class="cls-2" d="M494.41,382c-.29,16.68,1.12,33.51,1.93,50.16.22,4.39,3,1.29,2.81-1.58-.79-16.3-.95-32.88-2.87-49.09-.3-2.49-1.84-1.57-1.87.51Z" transform="translate(-104 -22)"/><path class="cls-2" d="M498.48,555.88c-.76,21,.21,42.29.55,63.35.08,4.42,2.88,1.28,2.85-1.59-.29-20.71.07-41.64-1.32-62.31-.19-2.8-2-1.66-2.08.55Z" transform="translate(-104 -22)"/><path class="cls-1" d="M556.64,231.93q0-.94,0-1.89c0-.35,0-1.74-.54-1.84s-.59,1.08-.6,1.37c0,.79,0,1.59,0,2.39,0,.36.06,2,.65,2s.57-1.72.56-2Z" transform="translate(-104 -22)"/><path class="cls-2" d="M389,300.42c-12.2,1.94-24.66,3-36.82,5.47-16.43,3.3-39.48,21.25-53.1,31-29.5,21.1-46,57.94-54,92.31-16.82,72.21,3.53,156.44,58.91,207.56,31.16,28.75,76.54,42.83,115.58,21.22,2.28-1.26,1.24-9.58-1.2-8.22-44.2,24.66-94.29,2.08-125.08-33-31.81-36.22-49.39-84.24-50.51-132.27-1.07-45.86,12.36-98.08,45.75-131.32,26.47-26.35,52.57-47,99.16-48.82" transform="translate(-104 -22)"/><path class="cls-2" d="M603.92,309.06c12.82,1.94,25.9,3,38.67,5.46,17.25,3.31,35.18,12.62,49.49,22.37,31,21.1,48.3,57.94,56.71,92.31,17.67,72.21-3.7,156.44-61.87,207.56C654.2,665.51,633,670.58,586.4,665.29c-2.68-.31-2.44-8.49.38-7.81,47,11.16,79-5.64,111.38-40.7,33.41-36.22,51.87-84.24,53.05-132.27,1.12-45.86-13-98.08-48.05-131.32-27.8-26.35-63.14-34.18-99.35-40" transform="translate(-104 -22)"/><path class="cls-2" d="M401.86,218.93l-.72-.92a.82.82,0,0,0-1.08-.28c-6.28,4.05-3.69,22.88-4.09,29l2.6-2.47a177.49,177.49,0,0,1-20.31-25.57c-1.65-2.53-2.77,2.83-2.73,3.67l1.68,34.38L380,253Q367.1,241,354.17,229c-3-2.78-2.79,5.89-1.78,7.51a53.16,53.16,0,0,1,8.64,27l2.39-4.22Q348,249.07,332.51,238.9c-2.7-1.78-2.09,6.36-1.71,7.26a105.8,105.8,0,0,1,8,29.69l2.32-5.3A243.43,243.43,0,0,1,316,251.29c-2.14-1.88-2.27,5.6-2,6.37,3.14,9.78,6.21,19.58,9.31,29.36l2.09-6.38a291.94,291.94,0,0,1-27.46-15.26c-2.8-1.76-2.29,6.2-1.79,7.22a165.07,165.07,0,0,1,10.25,26.3l2.13-6.35c-8.1-4.2-16.31-8-24.75-11.42-2.7-1.1-2.5,5.09-2.06,6.33a224.81,224.81,0,0,0,11.07,26.21l1.88-7.18a106.49,106.49,0,0,0-26.92-7.44c-2.87-.41-2,6.83-.86,8A245.76,245.76,0,0,1,284,326.37l.84-8c-8.72-.74-17.37-1.05-26.11-.92-3.27.05-2,7.27-.35,8.52q6.84,5.27,13.68,10.54c2.16,1.67,3.32-6.66.93-8.47l-13.7-10.45L259,326.1a250,250,0,0,1,26.11.83c3,.25,1.81-6.79.84-8a239.37,239.37,0,0,0-17.11-19.31l-.86,8a102.09,102.09,0,0,1,25.79,7.15c3.16,1.34,2.54-5.89,1.88-7.18A191.46,191.46,0,0,1,285,283.07l-2.06,6.33c8.43,3.45,16.62,7.26,24.72,11.43,2.72,1.41,2.46-5.24,2.13-6.34a183.9,183.9,0,0,0-10.93-28l-1.79,7.22A283.36,283.36,0,0,0,324.53,289c2.7,1.31,2.45-5.25,2.09-6.38-3.14-9.78-6.31-19.55-9.4-29.35l-2,6.37a234.9,234.9,0,0,0,25,19.17c2.25,1.5,2.43-4.47,2.32-5.29a129.84,129.84,0,0,0-9.15-33.5l-1.71,7.26q15.45,10.2,30.9,20.4c1.9,1.26,2.42-3.51,2.38-4.22A69.78,69.78,0,0,0,354.17,229l-1.78,7.51q12.89,11.94,25.84,23.81c2.11,1.93,2.83-2.33,2.76-3.7q-.86-17.19-1.71-34.38l-2.74,3.68a162.68,162.68,0,0,0,20.37,25.32c1.6,1.62,2.53-1.24,2.61-2.48.22-3.62,2.44-22.19,2.21-24" transform="translate(-104 -22)"/><path class="cls-2" d="M550,202.55l.41-1.19c.15-.42.51-.76.94-.58,7.1,2.9,10.07,24.23,12.21,30.86l-3.17-2.08a199.93,199.93,0,0,0,11.82-33.12c.83-3.19,3.43,2.43,3.63,3.36l8.31,38.2-3.67-3.38q8.67-16.43,17.44-32.77c2-3.8,4.33,5.78,3.84,7.82a67.42,67.42,0,0,0-.39,31.79l-3.47-4.05q11.64-15.06,23.31-30.06c2-2.62,3.81,6.47,3.7,7.57a136,136,0,0,0,1,34.58l-3.71-5.24a246.43,246.43,0,0,0,18.12-27.36c1.48-2.6,3.75,5.59,3.74,6.5-.15,11.52-.23,23-.34,34.57l-3.8-6.5a277.51,277.51,0,0,0,21.52-23.56c2.14-2.63,3.95,6.25,3.77,7.49a206.53,206.53,0,0,0-2.11,31.43l-3.84-6.45c6.44-6.61,13.11-12.79,20.08-18.66,2.23-1.88,3.82,5,3.77,6.45a282,282,0,0,1-2.91,31.53l-3.84-7.42a92.39,92.39,0,0,1,23.27-14.83c2.59-1.16,3.84,7,3.1,8.56a271.68,271.68,0,0,0-10.62,25.49l-3.1-8.59a219.84,219.84,0,0,1,24.39-7.47c3.1-.76,3.94,7.5,2.77,9.27l-9.88,15c-1.56,2.37-5-6.5-3.31-9.08l9.93-14.87,2.78,9.28a207.73,207.73,0,0,0-24.41,7.36c-2.77,1-3.67-7-3.1-8.59a263.46,263.46,0,0,1,10.6-25.45l3.11,8.56a88.27,88.27,0,0,0-22.29,14.23c-2.6,2.25-4.1-5.85-3.84-7.42a240.24,240.24,0,0,0,3-29.55l3.77,6.45c-7,5.88-13.61,12.08-20,18.67-2.16,2.22-3.84-5.15-3.84-6.44a230,230,0,0,1,2.25-33.5l3.77,7.49a271.76,271.76,0,0,1-21.53,23.59c-2.17,2.11-3.83-5.16-3.81-6.49.15-11.53.33-23,.43-34.58l3.75,6.5a238.15,238.15,0,0,1-18.11,27.25c-1.7,2.2-3.58-4.31-3.71-5.24a166.26,166.26,0,0,1-1-39.08l3.69,7.56q-11.64,15-23.29,30c-1.44,1.86-3.3-3.25-3.47-4-3-14.14-3-26.92.29-40.48l3.84,7.82Q593,226,584.19,242.22c-1.44,2.64-3.34-1.86-3.67-3.39q-4.12-19.1-8.27-38.2l3.64,3.36a182.4,182.4,0,0,1-11.95,32.86c-1,2.18-2.74-.73-3.17-2.07-1.25-3.93-8.69-23.79-9-25.83" transform="translate(-104 -22)"/><path class="cls-2" d="M272.08,657.09c30,45,89.59,73.44,143.19,71.9,3.49-.1,3.78-7.67.27-7.84-58-2.68-103.1-26.21-141.67-69-2-2.23-2.72,3.55-1.79,5Z" transform="translate(-104 -22)"/><path class="cls-2" d="M286.3,670.67c-3.05,1.19-4.72,4.62-6.44,6.67l-7,8.37c-.49.59-.89,5.38.85,4.63a10.22,10.22,0,0,0,2.26-1.16c.79-.46,1.35-4.39-.18-4.22a13.59,13.59,0,0,0-2.63.51l.86,4.63c4.33-5.28,10.53-10.92,13-16.81.11-.27.46-3.06-.67-2.62Z" transform="translate(-104 -22)"/><path class="cls-2" d="M297.52,679.05a176.35,176.35,0,0,0-14.87,19.65c-.46.69-.69,6.24.82,5.27a11,11,0,0,0,2.14-1.57c.64-.53,1.34-5-.14-4.71a12.89,12.89,0,0,0-2.51.73l.82,5.27c4.8-6.79,9.91-13.44,14.7-20.24.62-.89.29-5.78-1-4.4Z" transform="translate(-104 -22)"/><path class="cls-2" d="M309.63,687.49c-3.61,2.6-5.84,6.53-8.28,9.82q-4.41,5.94-8.49,12c-.53.79-.39,6.32.86,5.36a26.51,26.51,0,0,0,2.11-1.82c.67-.65,1-5.12-.74-4.57a7.45,7.45,0,0,0-1.91.75l.85,5.36c5.26-7.78,12.19-15.33,16.37-23.49.21-.4.2-4.13-.77-3.43Z" transform="translate(-104 -22)"/><path class="cls-2" d="M322.49,696.65a118.59,118.59,0,0,0-12.21,24c-.22.59-.29,6.61,1,5.44a25.26,25.26,0,0,0,2.2-2.19c.65-.71.93-5.79-.66-5.11a8,8,0,0,0-2,1.05l1,5.44a241.83,241.83,0,0,1,11.56-23.61c.58-1.05.15-6.66-.95-5Z" transform="translate(-104 -22)"/><path class="cls-2" d="M333,701.68a239.24,239.24,0,0,0-11.53,26.94c-.35,1,.5,5.79,1.7,3.31a246.3,246.3,0,0,0,11-26.93c.28-.82-.08-5.49-1.19-3.32Z" transform="translate(-104 -22)"/><path class="cls-2" d="M345.84,710.13c-5.16,7-7.35,16.34-10.69,24-.34.78-.18,6.66,1.54,4.75a26.73,26.73,0,0,0,2-2.31c.59-.73.55-5.67-.81-4.72a18.77,18.77,0,0,0-2.07,1.53l1.44,4.45c3.23-8.25,7.69-16.56,9.64-25.1.07-.31-.12-3.85-1-2.64Z" transform="translate(-104 -22)"/><path class="cls-2" d="M358.28,715c-4,7.8-6.88,15.94-9.86,24-.41,1.11.39,6.56,2.2,3.76a12.49,12.49,0,0,0,1.92-5.08c.23-1.35-1-5-2.18-2L349,738l1.89,4.22c2.51-7.89,5.8-15.55,8.91-23.28.41-1-.23-6.41-1.5-3.9Z" transform="translate(-104 -22)"/><path class="cls-2" d="M369.51,718c-3.53,7.4-4.81,16-6.61,23.79-.09.4.14,4.94,1.68,3.87a20.57,20.57,0,0,0,2.1-1.58c1-.77,1.67-5.87-.53-5.19a13.68,13.68,0,0,0-2.17.78l1.68,3.87c1.56-7.77,4.17-15.41,5.46-23.2.1-.65-.6-4.47-1.61-2.34Z" transform="translate(-104 -22)"/><path class="cls-2" d="M383.17,722.8c-2.75,7.08-3.85,14.71-4.86,22.07-.11.84.87,5.53,2.44,2.88a34.47,34.47,0,0,0,1.89-3.54c.3-.65,0-5.46-1.46-3.84a28.81,28.81,0,0,0-2.45,3.25l2.52,2.13c.68-7.13,2.49-14,3.88-21.08.24-1.19-.91-4.58-2-1.87Z" transform="translate(-104 -22)"/><path class="cls-2" d="M399.22,722.19c-1.25,5.44-2.06,11-3,16.48-.55,3.17-2.24,7.42-.09,10.42a.93.93,0,0,0,.72.48,2.06,2.06,0,0,0,1.55-.84c1.14-1.23,1-4,.17-5.35l-.13-.2c-1.28-2-2,2.77-2,3.24l0,.38,1.06-3.77L397,743l1,1c-.47-1,1.25-6.75,1.55-8.74.55-3.6,1.13-7.19,1.51-10.81.13-1.29-1.09-5.6-1.86-2.22Z" transform="translate(-104 -22)"/><path class="cls-2" d="M412.51,723.48c-.65,6.14-.77,12.33-1.53,18.45-.09.74-.35,4,1.18,4.2s1.83-2.34,1.87-3.19c.09-1.79.13-3.56.07-5.35-.1-2.68-2.27-2.63-2.67-.1-.28,1.76-.41,3.54-.53,5.32,0,.7.07,3.41,1.47,3.39s1.67-2.52,1.66-3.26c0-6.23.6-12.43.69-18.65,0-2.17-1.87-4-2.21-.81Z" transform="translate(-104 -22)"/><path class="cls-2" d="M272.25,649.21c-20.88,25.82,8.42,56.7,28.7,71.26,32.7,23.49,73.6,33,113.33,27.39,3.58-.5,3.51-9.68.33-9.23a157,157,0,0,1-82.32-10C306.63,718,256.21,688.69,274,654.38c.63-1.2.11-7.53-1.79-5.17Z" transform="translate(-104 -22)"/><path class="cls-1" d="M666.89,198.62l-.31-.25a.46.46,0,0,0-.62,0,4,4,0,0,0-1.09.93c-.94,1.11-.89,3-.73,4.35.06.48.54,3.22,1.53,2.42a5,5,0,0,0,1.75-2.87c.3-1.17.61-3.71-.53-4.6Z" transform="translate(-104 -22)"/><path class="cls-1" d="M732.59,123.71c43.76,56.16,58.32,131.26,68.7,199.87.85,5.59,4.7,2,4.46-2-2.21-37.22-11.79-75-23.66-110.17a488.05,488.05,0,0,0-22.8-55.93c-6.32-13.09-12.87-28.89-25.35-37.21-1.9-1.26-2.09,4.47-1.35,5.43Z" transform="translate(-104 -22)"/><path class="cls-1" d="M736.59,124.42c33.53,16.39,54.94,45.78,65.71,81.1C814,244,818.39,287.94,806.06,326.69c-1,3.16,2.06,9.9,3.87,4.54,13.42-39.82,9.14-85.26-2.1-125.17-10.46-37.18-32.47-74.15-69.87-89-2.77-1.1-3.58,6.28-1.37,7.36Z" transform="translate(-104 -22)"/><path class="cls-1" d="M739,158.45c11.81-6.24,22.61-14.77,33.62-22.3l-.68-7.37a41.62,41.62,0,0,0-2,4.51c-.35.88-.41,7.4,1.15,5.4a11.61,11.61,0,0,0,1.9-2.93c.51-.92,1.16-8.65-.68-7.36-11.49,8-23.37,16.1-33.47,25.86-.64.62-.92,4.78.19,4.19Z" transform="translate(-104 -22)"/><path class="cls-1" d="M750.65,172.51c5.62-2.77,11.1-5.82,16.58-8.87s11.66-5.77,16.53-9.79c.92-.76,1.35-6.84,0-6.42C778.16,149.2,773,153,767.94,156c-5.91,3.43-11.82,6.85-17.56,10.55-1.28.83-1.15,6.71.27,6Z" transform="translate(-104 -22)"/><path class="cls-1" d="M757.47,188.29c13.73-7.1,27.24-14.25,42.06-18.89l0-7.5a13.41,13.41,0,0,0-3,1.84c-1,.71-1.55,6.75,0,6.48a14.62,14.62,0,0,0,3.39-.94c1.8-.65,1.58-8.11-.34-7.38-14.65,5.64-29.25,11.66-42.34,20.44-1.26.84-1.12,6.66.26,5.95Z" transform="translate(-104 -22)"/><path class="cls-1" d="M757.14,204.24c6.6-3.36,13.17-6.72,20.07-9.46s14.41-4.34,21.4-7.07c1.34-.53,1.5-6.76,0-6.6-14.38,1.51-30,9.62-41.75,17.67-1.16.8-1.1,6.16.27,5.46Z" transform="translate(-104 -22)"/><path class="cls-1" d="M768.32,219.76c7-1.65,13.5-5.13,20.29-7.51a179.28,179.28,0,0,1,26.77-7v-7.81a19.54,19.54,0,0,0-4.26,3.85c-.81.86-1.26,6.75.62,6a8.93,8.93,0,0,0,4-2.2c1.23-.88,2-8.2,0-7.81-15.9,3.17-34.51,7.67-47.45,17.89-.67.53-1.12,4.85,0,4.58Z" transform="translate(-104 -22)"/><path class="cls-1" d="M775.92,236c5.87-1,11.32-4.54,17-6.46a102.57,102.57,0,0,1,22.86-4.8V217a34.37,34.37,0,0,0-3,2.35c-.92.76-1.42,6.84,0,6.42a35.29,35.29,0,0,0,3.42-1.16c1.6-.61,1.76-7.93,0-7.74-13.42,1.48-30.67,5.23-40.44,15.19-.46.47-.86,4.12.21,3.94Z" transform="translate(-104 -22)"/><path class="cls-1" d="M777.05,257.2c15.69-5.83,30.79-13.06,47.05-17.32l-.36-7.69a17.73,17.73,0,0,0-2.39,3.72c-.41.73-1.09,7,.58,5.93a7.35,7.35,0,0,0,2.57-2.09c1.12-1.12,2.19-8.87-.39-8-16.18,5.74-32.55,11-47.38,19.89-1.23.74-1.37,6.15.32,5.52Z" transform="translate(-104 -22)"/><path class="cls-1" d="M783.26,273c14.08-3.27,28-6.18,42.42-7.71l.4-7.95c-3.15.53-4.14,1.6-5.34,4.5-.4.95-.39,7.63,1.33,5.46l3.61-2c2.37-.36,2.28-8.19.4-7.95a219.36,219.36,0,0,0-42.85,9.29c-1.58.53-1.39,6.69,0,6.37Z" transform="translate(-104 -22)"/><path class="cls-1" d="M787.64,291.16c12.29-1.14,24.42-4.43,36.72-5.86L823,282.21l.08,1,.92-4.59-1.34.89c-1.47.51-1.64,5.94-.33,6.64l.93.49a.58.58,0,0,0,.75,0c2.2-1.49,2.17-4,2-6.49,0-.52-.25-3.23-1.32-3.08-12.4,1.73-25.61,3.65-37.13,8.81-1.09.49-1.34,5.38,0,5.26Z" transform="translate(-104 -22)"/><path class="cls-1" d="M793.59,310.23c4.13.91,9.27-1.42,13.51-1.89,4.71-.51,9.93.59,14.41-.72,1.53-.44,1.63-5.76.32-6.46-4.17-2.23-9.77-1.41-14.34-.78-4.77.65-10.38,1.58-13.92,5-.78.75-1.57,4.49,0,4.84Z" transform="translate(-104 -22)"/><path class="cls-2" d="M395.38,880.81c-5.87-3.92-11.36-8.26-15.54-14-6.18-8.44-9.43-19.05-8.14-29.51,3.33-27.1,36.58-43.13,59.25-51.41h0c.92-.33,1.7,5.33.41,5.94-20.53,9.73-56.32,24.21-55.73,50.89.38,17.42,17.15,22.82,26.1,36.55C401.73,879.3,399.22,883.37,395.38,880.81Z" transform="translate(-104 -22)"/><path class="cls-2" d="M600.19,808.87c9.3,6.45,18.27,11.17,25.35,20.44,2.6,3.39,3,4.66,3.83,9.3,1,6.19-.5,7.08-4.67,11.28-4.32,4.36-9.45,7.65-14.13,11.58-1.15,1-1.16,7,.8,6.16,12-4.9,26.64-17.93,22.67-32.23-3.81-13.7-19.75-29-33.73-31.26-1.27-.21-.9,4.19-.12,4.73Z" transform="translate(-104 -22)"/><path class="cls-1" d="M169.54,649c14.38,106.65,58.27,212.42,117.69,301.62,2.57,3.87,4.54-3.35,3-5.72-28.62-44.12-53.4-90.5-73-139.31-20.66-51.4-34-104.18-45.06-158.34-.86-4.25-3-1-2.61,1.75Z" transform="translate(-104 -22)"/><path class="cls-1" d="M172.13,648.47c-37.9,114.78,14.35,243.11,113.55,308,2.69,1.76,3.74-7.15,1-8.91C243.05,919.09,207.67,879,186.27,831.27,160.61,774.06,159.07,712.15,174,652c.29-1.17-1-6.31-1.91-3.49Z" transform="translate(-104 -22)"/><path class="cls-1" d="M171.8,653.58c-2.59,104.85,40,211,107.4,290.16,2.38,2.81,3.84-4.78,2.07-6.87C213,856.31,178.88,758.34,174.53,653.51c-.16-3.82-2.63-3.75-2.73.07Z" transform="translate(-104 -22)"/><path class="cls-1" d="M148.37,688.17c13.67,1.38,28.51-1.81,42.14-3.19,3.18-.32,2.92-7.47-.17-7.15-13.85,1.44-29.18,1.4-42.51,5.54-1.88.59-1.37,4.61.54,4.8Z" transform="translate(-104 -22)"/><path class="cls-1" d="M155.8,715.81c7.55.23,15.43-2.1,22.83-3.56,6.73-1.33,13.56-2.42,20.07-4.56,2.16-.71,1.86-6.38-.68-6.17-7.67.64-15.3,2.64-22.81,4.26-6.67,1.43-13.73,2.36-20,5.17-1.68.76-1.55,4.79.54,4.86Z" transform="translate(-104 -22)"/><path class="cls-1" d="M152.36,748.3c9.68,1.05,20.2-2.46,29.68-4.34,9.82-2,20.15-3.28,29.64-6.44,1.64-.55,1.43-7.37-.18-7.25-10.68.83-21.43,4-31.93,6.18-9.28,2-19.07,3-27.51,7.39-.84.44-.78,4.34.3,4.46Z" transform="translate(-104 -22)"/><path class="cls-1" d="M152.19,784.5c19-3.2,38.07-10.51,55.68-18.16,2.08-.91.83-8-.18-7.6-18.3,7.7-37,13.3-55.64,19.91-1.46.52-1.2,6.07.14,5.85Z" transform="translate(-104 -22)"/><path class="cls-1" d="M169.73,807.68c8.45-1.54,16.69-6.88,24.21-10.87,8.72-4.62,18.46-9.17,25.91-15.66,1.05-.91,1-6.82-.74-6.08-8.53,3.57-16.31,9.65-24.44,14.14s-17.72,8-25.3,13.61c-.8.58-.93,5.09.36,4.86Z" transform="translate(-104 -22)"/><path class="cls-1" d="M178.82,827.79l0,.71.81-2.34-1.51-.26.31,4.31c1.56-3,8.36-4.61,11.23-6,3.57-1.71,7.13-3.46,10.7-5.19,7.65-3.71,15.69-7.08,22.88-11.63,1.32-.84.84-7.08-.49-6.58-9.1,3.36-17.68,8.53-26.3,13-5.65,2.92-17.35,6-19.17,12.73-.28,1-.56,3.21.48,3.94s.71.69,2,.35c.82-.22.83-1.73.82-2.35v-.71c0-2.75-1.84-2.74-1.75,0Z" transform="translate(-104 -22)"/><path class="cls-1" d="M184.86,860.47c16.55-7.52,34.36-17.73,48.61-29,1.26-1,1-7.31-.81-6.4-16.52,8.45-33.23,19.71-48.46,30.36-1.07.76-.84,5.74.66,5.06Z" transform="translate(-104 -22)"/><path class="cls-1" d="M203.79,887.37c15.66-11.49,30.77-23.77,46.61-35,1.91-1.36.38-8.37-.94-7.28-15.17,12.52-31.12,24.1-46.48,36.4-1.37,1.1-.59,6.9.81,5.88Z" transform="translate(-104 -22)"/><path class="cls-1" d="M224.29,907.77c12.65-10.47,24.08-22.21,37.09-32.31l-.91-6.79a46.52,46.52,0,0,0-3.57,4.3c-.68.9-.43,6.49,1,5.4a18.42,18.42,0,0,0,3.44-2.91c1.37-1.29.66-8-.91-6.79-13.12,10.24-26.64,21.17-37.13,34.18-.71.88-.23,5.89.95,4.92Z" transform="translate(-104 -22)"/><path class="cls-1" d="M242.57,931.75c4.15-4,8.09-8.2,12.44-12s9.64-7.07,14-11.08c1.11-1,1.27-7.29-.86-6.34-5.41,2.42-10.4,7.3-14.69,11.32a88.49,88.49,0,0,0-11.85,13.15c-.67.94-.12,6,1,5Z" transform="translate(-104 -22)"/><polygon class="cls-2" points="324.44 253.21 352.67 212.89 298.63 163.72 321.35 136.89 381.05 178.63 426.86 128.86 453.51 147.86 411.04 203.79 454.78 247.2 433.69 276.34 384.29 239.9 357.78 276.64 324.44 253.21"/><path class="cls-2" d="M214.1,540c11.58,76.26,24.8,153.53,55.36,225.43,27,63.4,66.35,127.92,125.19,170.44,27.58,19.93,61,35.18,96.43,36.52,35.8,1.35,68.22-12.8,96.46-32.16,57.9-39.68,98.88-100.33,125.45-161.52,30-69.14,47-144.52,51.66-218.51,4.74-75.26,8.72-157.44-7.31-231.62-13.58-62.82-34-129.73-87-172.53-53.66-43.31-143.42-48.47-212.62-35.2-36.47,7-71.45,21-101.29,41.79-32,22.28-54.29,51.36-74.88,82.8C237.29,313,205.65,389.16,209,469.69c.17,4.22,7.47,29,5.13,0-6-74.68,23.28-145.9,63.54-209.34,17.59-27.73,36.12-55.33,61.93-77.19,23.33-19.76,50.92-35,80.51-45.16,61.89-21.27,151.43-20.09,210.09,9.41,62.65,31.5,93.32,83.84,113.72,145.84,22.59,68.67,20.68,147.23,19.34,218.5-1.41,74.7-14.12,151.89-38,223.55-35.41,106.22-148.6,282-294,214.69C358.9,916.5,311.08,845.11,280,778.53c-35.5-76-49.74-157.73-62.14-239.35-.73-4.81-4.63-4.2-4.14-1Z" transform="translate(-104 -22)"/><path class="cls-2" d="M437.43,613.64a63.79,63.79,0,0,0-23.9,47.76c-.85,19.91,6.53,34.88,26.32,40.27,11.87,3.23,26.7,1.44,36.68,9.8,9.25,7.76,7.76,18.59,8.08,29.42.1,3.49.86,13.68,6.36,12.74s6.71-12.45,7.07-16.24c1.45-15.37,1-33.43-6.11-47.51-8.8-17.34-24.65-18.64-42.09-21.27-5.83-.88-18.93-2.14-21.76-8.29s5.77-16.19,10.64-19.75c6.37-4.65,14.74-8.3,22.25-10.72,9.35-3,18,.53,24.13-7.44,2.87-3.75,2.08-41,2.34-49.69" transform="translate(-104 -22)"/><path class="cls-2" d="M488.06,753.08c12.57,7.21,27.22,5.93,40.62,1.85,7.6-2.31,7.46-33.49-.57-30.64-12.46,4.43-23.93,2.9-36.77,2.63-6.61-.13-8.15,23.36-3.28,26.16Z" transform="translate(-104 -22)"/><path class="cls-2" d="M526.84,356.34l-4.24,4.71c-.22,41.47.45,59.47,1.12,100.92.34,20.67.86,41.35,1.32,62,.42,18.84-2,39.87,2.91,58.23,4.15,15.54,16.43,41,31.34,46.42,13.16,4.74,27.42,40.38,4.91,48.06-10.58,3.61-33.78-5-36.58,6.52-3.94,16.19-2.45,49.73-2.22,66.29.17,11.46,9,4.26,8.73-3.89a201.77,201.77,0,0,1,1.38-30.49c1-8.49-4-21.31,3.15-24.45,3.46-1.53,30.21-2.66,33.54-4.73,8.77-5.46,12.7-6.67,14.2-16.28,4.94-31.48-13.75-36.63-35.28-60-15.25-16.55-20.33-67.48-20.78-89.25-.41-19.64-.68-39.57-1.18-59.22" transform="translate(-104 -22)"/><path class="cls-3" d="M450.86,833.63l36.62-3.26,36.63-3.1c12.21-1,24.4-2.29,36.64-3s24.48-1.25,36.76-1.31l0,.3c-12.16,1.71-24.36,2.91-36.56,4s-24.46,1.6-36.69,2.36l-36.69,2.21-36.71,2.06Z" transform="translate(-104 -22)"/><path class="cls-2" d="M474.38,469.22c-4,16.71-16.48,30.55-31.19,39.79s-31.6,14.46-48.39,19.11c-22.49,6.22-45.73,11.67-69,9.64S279,525.05,267,505.38c-3.53-2.81-.45-8.37,2.83-11.48,34.6-32.88,83.93-46.6,131.84-49.81,22.26-1.49,59.24,4.79,73.3,21.8" transform="translate(-104 -22)"/><path class="cls-2" d="M732.48,502.4c-17-25.41-49.13-36.07-79.28-42.45-32.11-6.79-51.55-5.85-85.5-.46a48.61,48.61,0,0,0-23.4,10.75h0a16,16,0,0,0,2.87,13,122,122,0,0,0,70.77,45,190,190,0,0,0,26.9,3.4c14.6,1,29.47,1.19,43.62-2.39s30.87-7.53,38.72-19.65" transform="translate(-104 -22)"/><path class="cls-2" d="M483.6,528.49c-32.86,35.53-87.05,44.75-135.4,37.59-25.91-3.84-55.79-12.8-79.22-24.37-2.9,13.16,9.38,27.42,18.29,37.67,27.85,32,73.33,72.23,125.11,56.26,7.38-2.28,7-7.78,11.65-13.89,7.16-9.47,12.76-18.89,23-21.92,7.76-2.31,15.19-.65,22.19-4.68,3.37-1.94,11.66,6.31,13.4,2.87,8.93-17.73,6.22-48.12,3.13-67.7Z" transform="translate(-104 -22)"/><path class="cls-2" d="M277.31,425.23c6-12.13,18.4-20.5,31-27.13,22.31-11.73,47.63-19.84,73.42-18.88,42,1.57,78.52,26.31,110.41,51.59a234.42,234.42,0,0,0-8.62-46.16c-5.43-18.58-13.74-37.35-29.52-50.1-19.19-15.51-47.33-19.66-72-14S335.84,340.59,319,358s-29.58,37.8-41.76,58.23" transform="translate(-104 -22)"/><path class="cls-2" d="M528.17,453.5c36.19-25.12,74.23-41.22,118.35-30.37,11.22,2.76,35.19,7,45.65,11.72,10.07,4.58,39.3,18.32,48.47,24.35-1.19-23.48-7.21-48.44-19.93-68.51-7-11.07-21.22-25-29.27-33.35-9.51-9.86-23.06-15.4-36.51-19.55-15.53-4.78-31.66-8.13-47.93-8.46-28.79-.59-58,10.14-80.16,27" transform="translate(-104 -22)"/><path class="cls-2" d="M402.67,826.43C441,800.3,501.53,799,550.94,807c18.77,3.05,35.34,14,51.75,22.91,2.35,1.28,4.81,2.87,5.51,5.23,1.12,3.78-2.77,7-6.36,9.17-26.07,15.45-57.71,22.32-89.24,24.19-37.77,2.23-76.74-.68-100.82-27.36C411.78,841.18,399.19,828.81,402.67,826.43Z" transform="translate(-104 -22)"/><path class="cls-2" d="M528.7,531.75c27.82,16.86,58,31.5,90.61,36.54s99.24-2,123.6-21.9c-4.83,14.5-9.72,15.91-14.55,30.41-1.46,4.37-5.94,18.35-9.33,21.57-8.87,8.42-31.74,20.51-35.5,23.06C666.37,633.05,644.38,633,623.18,636s-43.81.09-62.67-9.9c-.7-11.89-16.72-21.13-22.61-31.83-9.49-17.22-12-43.59-9.2-62.48" transform="translate(-104 -22)"/><path class="cls-1" d="M637.62,483.53c-21.71-3.37-44.93-7.76-66.17-8.43-5.25-.16-6.89,10.55-1.54,11.9h0c21.1,5.35,44.21,7.77,65.8,11.24,22,3.52,44,7.15,65.9,11.16,7.58-2.74,6.53-9.61.75-15" transform="translate(-104 -22)"/><path class="cls-1" d="M503.46,833c-19.42.5-40.31.76-58.87,2.15-4.59.35-4.25,4.14.62,4.2h0c19.21.22,39.69-.71,59-1.17q29.5-.71,59.08-1.2c6.13-1.52,4.09-3.79-1.82-5.18" transform="translate(-104 -22)"/><path class="cls-1" d="M434.1,469.69c3.73,3.68,6.7,7.76,4.38,12.41-23.41,4.25-46.79,8.84-70.09,13.5-22.91,4.58-47,10.53-70,13.4h0c-5.84.73-7.87-8.53-2.53-10.19,21.59-6.73,46.45-11.12,69.43-15.81Z" transform="translate(-104 -22)"/><path class="cls-2" d="M715.47,668.38c-25.27,38-75.57,62-120.79,60.66-2.94-.09-3.19-6.48-.23-6.61,49-2.27,87-22.12,119.51-58.24,1.69-1.87,2.3,3,1.51,4.19Z" transform="translate(-104 -22)"/><path class="cls-2" d="M703.48,679.84c2.57,1,4,3.9,5.43,5.63l5.91,7.06c.41.49.75,4.53-.72,3.9a8.58,8.58,0,0,1-1.91-1c-.66-.39-1.13-3.7.16-3.56a11.52,11.52,0,0,1,2.21.43l-.72,3.9c-3.65-4.45-8.88-9.2-10.92-14.17-.1-.23-.39-2.59.56-2.21Z" transform="translate(-104 -22)"/><path class="cls-2" d="M694,686.91a146.77,146.77,0,0,1,12.53,16.57c.4.59.59,5.27-.68,4.45a9.1,9.1,0,0,1-1.81-1.33c-.54-.44-1.13-4.23.12-4a10.23,10.23,0,0,1,2.11.62l-.68,4.45c-4.06-5.74-8.37-11.35-12.4-17.08-.53-.75-.25-4.88.81-3.71Z" transform="translate(-104 -22)"/><path class="cls-2" d="M683.8,694c3,2.19,4.92,5.5,7,8.28q3.71,5,7.15,10.14c.45.67.34,5.33-.72,4.52a21.84,21.84,0,0,1-1.78-1.54c-.57-.54-.86-4.31.62-3.85a6,6,0,0,1,1.61.63l-.72,4.52c-4.43-6.56-10.27-12.92-13.8-19.81-.18-.34-.17-3.48.65-2.89Z" transform="translate(-104 -22)"/><path class="cls-2" d="M673,701.75A100.45,100.45,0,0,1,683.25,722c.19.49.24,5.57-.87,4.58a20.08,20.08,0,0,1-1.85-1.84c-.56-.6-.79-4.88.55-4.31a6.5,6.5,0,0,1,1.69.89l-.87,4.58A203.53,203.53,0,0,0,672.15,706c-.49-.89-.13-5.62.8-4.26Z" transform="translate(-104 -22)"/><path class="cls-2" d="M664.06,706a203.89,203.89,0,0,1,9.72,22.72c.3.82-.41,4.89-1.43,2.8a209.16,209.16,0,0,1-9.3-22.72c-.23-.69.07-4.64,1-2.8Z" transform="translate(-104 -22)"/><path class="cls-2" d="M653.25,713.12c4.36,5.9,6.2,13.79,9,20.28.29.67.15,5.62-1.3,4a21.92,21.92,0,0,1-1.66-1.95c-.5-.62-.47-4.78.68-4a16.19,16.19,0,0,1,1.75,1.3l-1.21,3.75c-2.73-7-6.49-14-8.14-21.18-.06-.26.11-3.24.86-2.23Z" transform="translate(-104 -22)"/><path class="cls-2" d="M642.76,717.25a189.18,189.18,0,0,1,8.32,20.26c.34.94-.33,5.54-1.86,3.17a10.59,10.59,0,0,1-1.63-4.28c-.18-1.13.84-4.18,1.85-1.71l1.16,1.93L649,740.18c-2.12-6.66-4.89-13.12-7.52-19.64-.34-.86.19-5.41,1.27-3.29Z" transform="translate(-104 -22)"/><path class="cls-2" d="M633.28,719.77c3,6.25,4.06,13.48,5.58,20.07.08.34-.12,4.17-1.42,3.26a16.61,16.61,0,0,1-1.77-1.32c-.81-.65-1.41-5,.44-4.38a12,12,0,0,1,1.83.65l-1.41,3.27c-1.31-6.55-3.52-13-4.6-19.58-.09-.54.5-3.76,1.35-2Z" transform="translate(-104 -22)"/><path class="cls-2" d="M621.76,723.81c2.32,6,3.25,12.41,4.1,18.62.1.71-.73,4.67-2.06,2.43a27.68,27.68,0,0,1-1.59-3c-.25-.55,0-4.61,1.23-3.24a24.32,24.32,0,0,1,2.06,2.75l-2.12,1.79c-.57-6-2.1-11.84-3.28-17.78-.2-1,.78-3.86,1.66-1.58Z" transform="translate(-104 -22)"/><path class="cls-2" d="M608.22,723.3c1.06,4.59,1.74,9.26,2.55,13.9.47,2.68,1.9,6.26.08,8.79a.82.82,0,0,1-.6.41,1.73,1.73,0,0,1-1.31-.72c-1-1-.88-3.38-.15-4.51l.11-.17c1.08-1.66,1.7,2.34,1.68,2.74l0,.32-.9-3.18.41-.06-.84.85c.4-.85-1.05-5.7-1.31-7.38-.46-3-.95-6.07-1.27-9.12-.11-1.09.92-4.73,1.57-1.87Z" transform="translate(-104 -22)"/><path class="cls-2" d="M597,724.39c.55,5.17.64,10.4,1.29,15.56.07.62.29,3.38-1,3.54s-1.54-2-1.58-2.69c-.07-1.51-.1-3-.05-4.51.08-2.26,1.91-2.22,2.25-.09.24,1.49.34,3,.45,4.5,0,.59-.06,2.87-1.24,2.85s-1.41-2.12-1.41-2.75c0-5.25-.5-10.49-.58-15.73,0-1.83,1.58-3.4,1.87-.68Z" transform="translate(-104 -22)"/><path class="cls-2" d="M715.33,661.73c17.62,21.79-7.1,47.84-24.21,60.12C663.53,741.66,629,749.66,595.52,745c-3-.43-3-8.17-.28-7.79a132.31,132.31,0,0,0,69.44-8.45c21.65-9,64.19-33.68,49.14-62.63-.53-1-.09-6.35,1.51-4.36Z" transform="translate(-104 -22)"/></svg>